<svg xmlns="http://www.w3.org/2000/svg" viewBox="0 0 512 512" role="img" aria-label="Calcio icon">
  <rect width="512" height="512" rx="96" fill="#071A3D" />
  <circle cx="256" cy="256" r="160" fill="none" stroke="#F8F5ED" stroke-width="30" />
  <path d="M378.6 153.2a160 160 0 0 1 0 205.6l-68.9-57.8a70 70 0 0 0 0-90Z" fill="#D4A44B" />
  <circle cx="256" cy="256" r="98" fill="none" stroke="#F8F5ED" stroke-width="18" />
  <circle cx="256" cy="256" r="39" fill="#F8F5ED" />
  <circle cx="256" cy="256" r="16" fill="#071A3D" />
  <path
    d="M176 142l46 78M336 142l-46 78M118 276h92M394 276h-92M176 370l46-78M336 370l-46-78"
    fill="none"
    stroke="#F8F5ED"
    stroke-linecap="round"
    stroke-width="18"
  />
  <path
    d="M348 219a98 98 0 0 1 0 74"
    fill="none"
    stroke="#071A3D"
    stroke-linecap="round"
    stroke-width="18"
  />
</svg>
