<svg xmlns="http://www.w3.org/2000/svg" viewBox="0 0 512 512" role="img" aria-label="Calcio mark">
  <circle cx="256" cy="256" r="160" fill="none" stroke="#F8F5ED" stroke-width="30" />
  <circle cx="256" cy="256" r="98" fill="none" stroke="#F8F5ED" stroke-width="18" />
  <path
    d="M256 217a39 39 0 1 0 0 78a39 39 0 1 0 0-78ZM256 240a16 16 0 1 1 0 32a16 16 0 1 1 0-32Z"
    fill="#F8F5ED"
    fill-rule="evenodd"
  />
  <path
    d="M176 142l46 78M336 142l-46 78M118 276h92M394 276h-92M176 370l46-78M336 370l-46-78"
    fill="none"
    stroke="#F8F5ED"
    stroke-linecap="round"
    stroke-width="18"
  />
</svg>
