<svg xmlns="http://www.w3.org/2000/svg" viewBox="0 0 512 512" role="img" aria-label="The Steele Spreadsheet System — bold S letterform (light)">
  <title>The Steele Spreadsheet System — bold S letterform (light variant)</title>
  <rect width="512" height="512" rx="96" ry="96" fill="#F7F8FA"/>
  <path d="
        M 380 158
        C 380 110, 322 96, 256 96
        C 188 96, 134 142, 134 200
        C 134 252, 178 282, 230 282
        L 282 282
        C 334 282, 378 312, 378 364
        C 378 422, 324 466, 256 466
        C 190 466, 132 446, 132 402
       "
       fill="none"
       stroke="#A77C2A"
       stroke-width="56"
       stroke-linecap="round"
       stroke-linejoin="round"/>
  <path d="M 256 218 L 226 244 L 238 282 L 274 282 L 286 244 Z"
        fill="#F7F8FA"
        stroke="#F7F8FA"
        stroke-width="2"
        stroke-linejoin="round"/>
  <path d="M 256 218 L 226 244 L 238 282 L 274 282 L 286 244 Z"
        fill="none"
        stroke="#A77C2A"
        stroke-width="6"
        stroke-linejoin="round"/>
</svg>
